# xmcd
#
# Track frame offsets: 
#        150
#        18187
#        29400
#        39507
#        52315
#        64957
#        80550
#        93130
#        104742
#        115842
#        133332
#        146872
#        160100
#        175995
#        188045
#        198727
#        210600
#        217290
#
# Disc length: 3083 seconds
#
# Revision: 1
# Processed by: cddbd v1.5.2PL0 Copyright (c) Steve Scherf et al.
# Submitted via: ExactAudioCopy v0.95b4
#
DISCID=1a0c0912
DTITLE=Don Williams - You're My Best Friend
DYEAR=1996
DGENRE=Country
TTITLE0=Good Ole Boys Like Me
TTITLE1=Storybook Children
TTITLE2=Take My Hand For A While
TTITLE3=Amanda
TTITLE4=There's Never Been A Time
TTITLE5=Tears
TTITLE6=Coming Apart
TTITLE7=Follow Me Back To Louisville
TTITLE8=Spend Some Time With Me
TTITLE9=I Believe In You
TTITLE10=Ruby Tuesday
TTITLE11=Where Do I Go From Here
TTITLE12=I've Been Loved By The Best
TTITLE13=On Her Way To Being A Woman
TTITLE14=(There's) Always Something There To Remind Me
TTITLE15=Tulsa Time
TTITLE16=Lord I Hope This Day Is Good
TTITLE17=You're My Best Friend
EXTD=
EXTT0=
EXTT1=
EXTT2=
EXTT3=
EXTT4=
EXTT5=
EXTT6=
EXTT7=
EXTT8=
EXTT9=
EXTT10=
EXTT11=
EXTT12=
EXTT13=
EXTT14=
EXTT15=
EXTT16=
EXTT17=
PLAYORDER=
